<svg width="20" height="20" viewBox="0 0 20 20" fill="none" xmlns="http://www.w3.org/2000/svg">
<path fill-rule="evenodd" clip-rule="evenodd" d="M10.4974 9.58616L13.7399 12.8287L13.0332 13.5362L9.4974 10.0003V5.00033H10.4974V9.58616ZM9.9974 18.3337C5.3949 18.3337 1.66406 14.6028 1.66406 10.0003C1.66406 5.39783 5.3949 1.66699 9.9974 1.66699C14.5999 1.66699 18.3307 5.39783 18.3307 10.0003C18.3307 14.6028 14.5999 18.3337 9.9974 18.3337ZM9.9974 17.3337C11.9423 17.3337 13.8076 16.561 15.1828 15.1858C16.5581 13.8105 17.3307 11.9452 17.3307 10.0003C17.3307 8.0554 16.5581 6.19014 15.1828 4.81488C13.8076 3.43961 11.9423 2.66699 9.9974 2.66699C8.05247 2.66699 6.18721 3.43961 4.81195 4.81488C3.43668 6.19014 2.66406 8.0554 2.66406 10.0003C2.66406 11.9452 3.43668 13.8105 4.81195 15.1858C6.18721 16.561 8.05247 17.3337 9.9974 17.3337Z" fill="#848484"/>
</svg>
