<svg width="24" height="25" viewBox="0 0 24 25" fill="none" xmlns="http://www.w3.org/2000/svg">
<path opacity="0.5" d="M19 6.5H5C4.20435 6.5 3.44129 6.81607 2.87868 7.37868C2.31607 7.94129 2 8.70435 2 9.5V12.22L8.837 14.5H15.163L22 12.22V9.5C22 8.70435 21.6839 7.94129 21.1213 7.37868C20.5587 6.81607 19.7956 6.5 19 6.5Z" fill="#5A4146"/>
<path d="M10 6.5V5.5H14V6.5H16V5.5C16 4.96957 15.7893 4.46086 15.4142 4.08579C15.0391 3.71071 14.5304 3.5 14 3.5H10C9.46957 3.5 8.96086 3.71071 8.58579 4.08579C8.21071 4.46086 8 4.96957 8 5.5V6.5H10ZM8.837 14.5L2 12.22V18.5C2.00079 19.2954 2.31712 20.058 2.87956 20.6204C3.44199 21.1829 4.20459 21.4992 5 21.5H19C19.7954 21.4992 20.558 21.1829 21.1204 20.6204C21.6829 20.058 21.9992 19.2954 22 18.5V12.22L15.163 14.5H8.837Z" fill="#5A4146"/>
</svg>
